<?xml version="1.0" encoding="UTF-8" standalone="no"?>
<svg
   xmlns:dc="http://purl.org/dc/elements/1.1/"
   xmlns:cc="http://creativecommons.org/ns#"
   xmlns:rdf="http://www.w3.org/1999/02/22-rdf-syntax-ns#"
   xmlns:svg="http://www.w3.org/2000/svg"
   xmlns="http://www.w3.org/2000/svg"
   xmlns:sodipodi="http://sodipodi.sourceforge.net/DTD/sodipodi-0.dtd"
   xmlns:inkscape="http://www.inkscape.org/namespaces/inkscape"
   width="100"
   height="100"
   version="1"
   id="svg14"
   sodipodi:docname="paper.svg"
   inkscape:version="0.92.1 r15371">
  <metadata
     id="metadata20">
    <rdf:RDF>
      <cc:Work
         rdf:about="">
        <dc:format>image/svg+xml</dc:format>
        <dc:type
           rdf:resource="http://purl.org/dc/dcmitype/StillImage" />
        <dc:title />
      </cc:Work>
    </rdf:RDF>
  </metadata>
  <defs
     id="defs18" />
  <sodipodi:namedview
     pagecolor="#ffffff"
     bordercolor="#666666"
     borderopacity="1"
     objecttolerance="10"
     gridtolerance="10"
     guidetolerance="10"
     inkscape:pageopacity="0"
     inkscape:pageshadow="2"
     inkscape:window-width="1920"
     inkscape:window-height="1172"
     id="namedview16"
     showgrid="false"
     inkscape:zoom="3.6875"
     inkscape:cx="-9.8012506"
     inkscape:cy="34.67181"
     inkscape:window-x="0"
     inkscape:window-y="0"
     inkscape:window-maximized="1"
     inkscape:current-layer="svg14" />
  <rect
     style="fill:#f2f2f2;fill-opacity:0.39215686;fill-rule:evenodd;stroke:none;stroke-width:0.1953125"
     id="rect3813"
     width="100"
     height="100"
     x="0"
     y="0"
     ry="6"
     rx="6" />
  <g
     id="g4493"
     transform="matrix(1.6071429,0,0,1.6071333,-1.4285716,-2.3923315)">
    <path
       id="path2"
       d="M 60,32 V 13 c 0,-1.662 -1.338,-3 -3,-3 H 7 c -1.662,0 -3,1.338 -3,3 v 38 c 0,1.662 1.338,3 3,3 h 31 z"
       style="fill:#cccccc;fill-opacity:1"
       inkscape:connector-curvature="0" />
    <path
       id="path4"
       d="M 56,34.322 V 14 H 8 v 36 h 32 z"
       style="opacity:1;fill:#ffffff;fill-opacity:1"
       inkscape:connector-curvature="0" />
    <path
       id="path6"
       d="m 7,10 c -1.662,0 -3,1.338 -3,3 v 1 c 0,-1.662 1.338,-3 3,-3 h 50 c 1.662,0 3,1.338 3,3 v -1 c 0,-1.662 -1.338,-3 -3,-3 z"
       style="opacity:0.7;fill:#ffffff"
       inkscape:connector-curvature="0" />
    <path
       id="path8"
       d="M 60,32 H 40.75 C 39.232,32 38,33.232 38,34.75 V 54 Z"
       style="fill:#cccccc;fill-opacity:1"
       inkscape:connector-curvature="0" />
    <path
       id="path10"
       d="M 40.75,32 C 39.232,32 38,33.232 38,34.75 v 1 C 38,34.232 39.232,33 40.75,33 H 59 l 1,-1 z"
       style="opacity:0.7;fill:#ffffff"
       inkscape:connector-curvature="0" />
    <path
       id="path12"
       d="M 60,32 38,54 H 7 C 5.338,54 4,52.662 4,51 v 1 c 0,1.662 1.338,3 3,3 H 38 L 60,33 Z"
       style="opacity:0.5"
       inkscape:connector-curvature="0" />
  </g>
</svg>
