<?xml version="1.0" encoding="utf-8"?>
<!-- Generator: Adobe Illustrator 23.0.3, SVG Export Plug-In . SVG Version: 6.00 Build 0)  -->
<svg version="1.1" id="Layer_1" xmlns="http://www.w3.org/2000/svg" xmlns:xlink="http://www.w3.org/1999/xlink" x="0px" y="0px"
	 viewBox="0 0 64 64" style="enable-background:new 0 0 64 64;" xml:space="preserve">
<style type="text/css">
	.st0{fill:url(#SVGID_1_);}
	.st1{fill:url(#SVGID_2_);}
</style>
<linearGradient id="SVGID_1_" gradientUnits="userSpaceOnUse" x1="8.2608" y1="58.2528" x2="51.665" y2="10.2528">
	<stop  offset="9.333893e-03" style="stop-color:#EEE1DC"/>
	<stop  offset="1" style="stop-color:#FFF4F4"/>
</linearGradient>
<path class="st0" d="M54.4,64H9.6C4.4,64,0,59.6,0,54.4V9.6C0,4.4,4.4,0,9.6,0h44.8C59.6,0,64,4.4,64,9.6v44.8
	C64,59.6,59.6,64,54.4,64z"/>
<g>
	<linearGradient id="SVGID_2_" gradientUnits="userSpaceOnUse" x1="17.1049" y1="50.7991" x2="51.6581" y2="16.0756">
		<stop  offset="5.609380e-03" style="stop-color:#FDBF00"/>
		<stop  offset="1" style="stop-color:#FF8856"/>
	</linearGradient>
	<path class="st1" d="M53.7,14.7c0-1.2-0.5-2.3-1.3-3.1c-0.8-0.8-1.9-1.3-3.1-1.3c-1.2,0-2.3,0.5-3.1,1.3l-0.9,0.9l-0.8-0.8
		L13.9,42.5l-2.4,8.3l-1.2,2.9l0,0l3.1-1.1l8.2-2.4l25.1-25.1c0.7,1.5,0.4,3.3-0.8,4.5l-6.8,6.8l1.9,1.9l6.8-6.8
		c2.3-2.3,2.5-5.8,0.8-8.3l3.7-3.7l-0.8-0.8l0.9-0.9C53.3,17,53.7,15.9,53.7,14.7L53.7,14.7z M17.3,42.8l2.5-2.5l4,4l-2.5,2.5
		L17.3,42.8z M21.6,38.5l2.5-2.5l4,4l-2.5,2.5L21.6,38.5z M15.9,45.2l3,3l-4.3,1.2L15.9,45.2z M30,38.1l-4-4l10.3-10.3l4,4L30,38.1z
		 M42.1,25.9l-4-4l6.5-6.5l4,4L42.1,25.9z M47.3,14.4l0.9-0.9c0.3-0.3,0.7-0.5,1.2-0.5s0.9,0.2,1.2,0.5s0.5,0.7,0.5,1.2
		s-0.2,0.9-0.5,1.2l-0.9,0.9L47.3,14.4z"/>
</g>
</svg>
