<?xml version="1.0" encoding="UTF-8" standalone="no"?>
<svg
   xmlns:dc="http://purl.org/dc/elements/1.1/"
   xmlns:cc="http://creativecommons.org/ns#"
   xmlns:rdf="http://www.w3.org/1999/02/22-rdf-syntax-ns#"
   xmlns:svg="http://www.w3.org/2000/svg"
   xmlns="http://www.w3.org/2000/svg"
   xmlns:sodipodi="http://sodipodi.sourceforge.net/DTD/sodipodi-0.dtd"
   xmlns:inkscape="http://www.inkscape.org/namespaces/inkscape"
   id="svg2"
   version="1.1"
   inkscape:version="1.0.1 (3bc2e813f5, 2020-09-07)"
   width="512"
   height="512"
   sodipodi:docname="etapen.svg">
  <metadata
     id="metadata8">
    <rdf:RDF>
      <cc:Work
         rdf:about="">
        <dc:format>image/svg+xml</dc:format>
        <dc:type
           rdf:resource="http://purl.org/dc/dcmitype/StillImage" />
        <dc:title />
      </cc:Work>
    </rdf:RDF>
  </metadata>
  <defs
     id="defs6">
    <filter
       style="color-interpolation-filters:sRGB;"
       inkscape:label="Invert"
       id="filter860">
      <feColorMatrix
         values="1 0 0 0 0 0 1 0 0 0 0 0 1 0 0 -0.21 -0.72 -0.07 2 0 "
         result="color2"
         id="feColorMatrix858" />
    </filter>
    <filter
       style="color-interpolation-filters:sRGB;"
       inkscape:label="Invert"
       id="filter864">
      <feColorMatrix
         values="1 0 0 0 0 0 1 0 0 0 0 0 1 0 0 -0.21 -0.72 -0.07 2 0 "
         result="color2"
         id="feColorMatrix862" />
    </filter>
    <filter
       style="color-interpolation-filters:sRGB;"
       inkscape:label="Invert"
       id="filter868">
      <feColorMatrix
         values="1 0 0 0 0 0 1 0 0 0 0 0 1 0 0 -0.21 -0.72 -0.07 2 0 "
         result="color2"
         id="feColorMatrix866" />
    </filter>
    <filter
       style="color-interpolation-filters:sRGB;"
       inkscape:label="Invert"
       id="filter872">
      <feColorMatrix
         values="1 0 0 0 0 0 1 0 0 0 0 0 1 0 0 -0.21 -0.72 -0.07 2 0 "
         result="color2"
         id="feColorMatrix870" />
    </filter>
    <filter
       style="color-interpolation-filters:sRGB;"
       inkscape:label="Invert"
       id="filter876">
      <feColorMatrix
         values="1 0 0 0 0 0 1 0 0 0 0 0 1 0 0 -0.21 -0.72 -0.07 2 0 "
         result="color2"
         id="feColorMatrix874" />
    </filter>
    <filter
       style="color-interpolation-filters:sRGB;"
       inkscape:label="Invert"
       id="filter880">
      <feColorMatrix
         values="1 0 0 0 0 0 1 0 0 0 0 0 1 0 0 -0.21 -0.72 -0.07 2 0 "
         result="color2"
         id="feColorMatrix878" />
    </filter>
    <filter
       style="color-interpolation-filters:sRGB;"
       inkscape:label="Invert"
       id="filter884">
      <feColorMatrix
         values="1 0 0 0 0 0 1 0 0 0 0 0 1 0 0 -0.21 -0.72 -0.07 2 0 "
         result="color2"
         id="feColorMatrix882" />
    </filter>
    <filter
       style="color-interpolation-filters:sRGB;"
       inkscape:label="Invert"
       id="filter888">
      <feColorMatrix
         values="1 0 0 0 0 0 1 0 0 0 0 0 1 0 0 -0.21 -0.72 -0.07 2 0 "
         result="color2"
         id="feColorMatrix886" />
    </filter>
    <filter
       style="color-interpolation-filters:sRGB;"
       inkscape:label="Invert"
       id="filter892">
      <feColorMatrix
         values="1 0 0 0 0 0 1 0 0 0 0 0 1 0 0 -0.21 -0.72 -0.07 2 0 "
         result="color2"
         id="feColorMatrix890" />
    </filter>
    <filter
       style="color-interpolation-filters:sRGB;"
       inkscape:label="Invert"
       id="filter896">
      <feColorMatrix
         values="1 0 0 0 0 0 1 0 0 0 0 0 1 0 0 -0.21 -0.72 -0.07 2 0 "
         result="color2"
         id="feColorMatrix894" />
    </filter>
    <filter
       style="color-interpolation-filters:sRGB;"
       inkscape:label="Invert"
       id="filter900">
      <feColorMatrix
         values="1 0 0 0 0 0 1 0 0 0 0 0 1 0 0 -0.21 -0.72 -0.07 2 0 "
         result="color2"
         id="feColorMatrix898" />
    </filter>
    <filter
       style="color-interpolation-filters:sRGB;"
       inkscape:label="Invert"
       id="filter904">
      <feColorMatrix
         values="1 0 0 0 0 0 1 0 0 0 0 0 1 0 0 -0.21 -0.72 -0.07 2 0 "
         result="color2"
         id="feColorMatrix902" />
    </filter>
    <filter
       style="color-interpolation-filters:sRGB;"
       inkscape:label="Invert"
       id="filter908">
      <feColorMatrix
         values="1 0 0 0 0 0 1 0 0 0 0 0 1 0 0 -0.21 -0.72 -0.07 2 0 "
         result="color2"
         id="feColorMatrix906" />
    </filter>
    <filter
       style="color-interpolation-filters:sRGB;"
       inkscape:label="Invert"
       id="filter912">
      <feColorMatrix
         values="1 0 0 0 0 0 1 0 0 0 0 0 1 0 0 -0.21 -0.72 -0.07 2 0 "
         result="color2"
         id="feColorMatrix910" />
    </filter>
  </defs>
  <sodipodi:namedview
     pagecolor="#ffffff"
     bordercolor="#666666"
     borderopacity="1"
     objecttolerance="10"
     gridtolerance="10"
     guidetolerance="10"
     inkscape:pageopacity="0"
     inkscape:pageshadow="2"
     inkscape:window-width="1920"
     inkscape:window-height="1029"
     id="namedview4"
     showgrid="false"
     inkscape:zoom="0.35355339"
     inkscape:cx="-598.1848"
     inkscape:cy="189.96836"
     inkscape:window-x="0"
     inkscape:window-y="0"
     inkscape:window-maximized="1"
     inkscape:current-layer="svg2"
     inkscape:document-rotation="0" />
  <path
     sodipodi:nodetypes="ccscsssccc"
     inkscape:connector-curvature="0"
     id="path3811"
     d="M 313.73292,128.82353 C 283.44258,111.6225 258.43851,96.868132 258.16828,96.036047 c -0.27022,-0.832096 1.09183,-3.465519 3.02673,-5.852068 l 1.88723,-3.252016 9.98571,3.060077 c 11.84999,3.631377 101.34638,56.71428 103.75762,58.87064 1.48012,1.32368 1.23698,2.74273 -1.12725,6.57929 -1.65792,2.69039 -3.8869,4.83864 -4.95325,4.77389 -1.06635,-0.0648 -26.72182,-14.19128 -57.01215,-31.39233 z"
     style="fill:#ececec;fill-opacity:1;fill-rule:nonzero;stroke:#ececec;stroke-width:23.3741;stroke-linecap:round;stroke-linejoin:miter;stroke-miterlimit:4;stroke-dasharray:none;stroke-opacity:1;filter:url(#filter860)" />
  <path
     sodipodi:nodetypes="sssssscsssssssscs"
     inkscape:connector-curvature="0"
     id="path3037"
     d="m 228.03662,378.36233 c -11.98416,-7.03745 -31.37179,-18.41813 -43.08358,-25.29041 -11.71181,-6.87228 -24.41404,-14.38944 -28.22718,-16.70482 -3.81316,-2.31538 -13.00696,-7.62238 -20.43069,-11.79336 -7.42373,-4.17097 -16.5395,-5.38243 -17.68987,-6.3406 -2.08683,-1.73821 0.15256,-4.97565 63.76968,-115.12257 35.06833,-60.71742 63.56897,-108.77594 64.14952,-108.969466 1.13559,-0.37853 27.18371,15.259036 30.91834,17.507686 1.45799,0.87786 7.02569,3.48272 12.20067,6.16529 5.17499,2.68256 17.63289,8.3443 27.3239,14.02299 9.69099,5.6787 27.29584,15.97405 39.12188,22.87858 11.82603,6.9045 21.64196,13.23468 21.81316,14.06706 0.1712,0.83236 -12.57724,23.93037 -28.32985,51.32889 -15.75262,27.39852 -43.74846,76.09483 -62.21299,108.21401 -18.46453,32.11917 -34.46325,59.39607 -35.55272,60.6153 l -1.98086,2.21681 z"
     style="fill:#c56969;stroke-width:1.08717;filter:url(#filter864);fill-opacity:1" />
  <path
     inkscape:connector-curvature="0"
     id="path2992"
     d="m 368.18211,141.24074 c -10.62234,-6.11966 -39.36949,-22.63059 -63.88257,-36.69095 -24.51308,-14.060349 -45.33048,-26.280278 -46.26088,-27.155378 -1.58876,-1.494305 -1.50738,-1.909268 1.33776,-6.82196 2.81876,-4.867152 3.72836,-5.567015 13.08156,-10.065119 12.34271,-5.93581 19.93285,-7.92803 33.04968,-8.674709 43.45946,-2.473939 81.41827,27.657052 88.90135,70.568206 2.23807,12.834 1.99674,16.44389 -1.5153,22.6669 -1.66122,2.9435 -3.55542,5.79009 -4.20933,6.32575 -0.83411,0.68327 -6.95276,-2.3467 -20.50227,-10.15274 z"
     style="fill:#9ec569;stroke-width:1.08717;filter:url(#filter868)" />
  <path
     inkscape:connector-curvature="0"
     id="path3031"
     d="m 228.22281,377.11209 c -11.33704,-6.65718 -30.27897,-17.74324 -42.09317,-24.6357 -16.00603,-9.33799 -21.46682,-13.00064 -21.42721,-14.37161 0.0783,-2.71027 125.32766,-219.21785 126.81724,-219.21785 0.69721,0 10.49619,5.3483 21.77552,11.88512 11.27933,6.53682 20.77781,11.88642 21.10774,11.888 1.86098,0.009 43.24058,24.8528 43.49952,26.11669 0.1712,0.83565 -12.70482,24.15919 -28.61336,51.83008 -93.42644,162.50337 -96.74602,168.17292 -98.59403,168.3904 -1.02271,0.12036 -11.13522,-5.22795 -22.47225,-11.88513 z"
     style="fill:#39c4a8;stroke-width:1.08717;filter:url(#filter872)" />
  <path
     inkscape:connector-curvature="0"
     id="path3029"
     d="m 134.44123,321.90847 c -7.35392,-4.31465 -13.37076,-8.24093 -13.37076,-8.72504 0,-1.68805 125.79209,-219.010918 126.7747,-219.020485 0.54474,-0.0054 7.00728,3.51193 14.36121,7.816065 9.80625,5.73946 13.34003,8.31022 13.25548,9.64314 -0.17529,2.76326 -124.73101,217.70125 -126.2901,217.93088 -0.74786,0.11016 -7.3766,-3.3299 -14.73053,-7.64456 z"
     style="fill:#39c4a8;stroke-width:1.08717;filter:url(#filter876)" />
  <path
     sodipodi:nodetypes="sssssssscs"
     inkscape:connector-curvature="0"
     id="path2990"
     d="M 363.22998,138.46951 C 350.97343,131.36504 322.22628,114.74528 299.3474,101.5367 276.46853,88.328114 256.94072,77.353038 256.78273,76.566302 c -0.56411,-2.809182 5.22598,-11.686061 11.38427,-14.90202 8.20475,-4.284653 22.23288,-8.557992 32.93022,-9.813078 30.57005,-3.586685 62.08985,11.552157 79.87253,37.645123 8.08193,11.858833 13.74608,29.248363 14.0896,43.256583 0.16508,6.73164 -0.12023,7.96223 -3.0426,13.12316 -1.98539,3.50625 -3.85454,5.65954 -4.86346,5.6028 -0.90128,-0.0507 -11.66678,-5.9049 -23.92331,-13.00936 z"
     style="fill:#c43939;stroke-width:1.08717;filter:url(#filter880);fill-opacity:1" />
  <path
     sodipodi:nodetypes="sscsscssss"
     inkscape:connector-curvature="0"
     id="path3023"
     d="m 228.22281,377.11209 c -11.33704,-6.65718 -30.27897,-17.74324 -42.09317,-24.6357 -16.00603,-9.33799 -21.46682,-13.00064 -21.42721,-14.37161 0.0783,-2.71027 125.32766,-219.21785 126.81724,-219.21785 0.69721,0 11.45438,5.05347 22.7337,11.59029 11.27934,6.53682 20.11446,11.81272 20.44439,11.8143 1.86098,0.009 43.3627,25.58616 43.62164,26.85005 0.1712,0.83565 -13.12177,23.79436 -29.03031,51.46525 -93.42644,162.50337 -96.74602,168.17292 -98.59403,168.3904 -1.02271,0.12036 -11.13522,-5.22795 -22.47225,-11.88513 z"
     style="fill:#c24e38;stroke-width:1.08717;filter:url(#filter884);fill-opacity:1" />
  <path
     sodipodi:nodetypes="sscsscs"
     inkscape:connector-curvature="0"
     id="path3021"
     d="m 134.44123,321.90847 c -7.35392,-4.31465 -16.24531,-5.73492 -16.24531,-6.21904 0,-1.68804 127.37787,-221.557023 128.36048,-221.56659 0.54474,-0.0054 8.29605,3.552035 15.64998,7.85617 9.80625,5.73946 13.34003,8.31022 13.25548,9.64314 -0.17529,2.76326 -124.73101,217.70125 -126.2901,217.93088 -0.74786,0.11016 -7.3766,-3.3299 -14.73053,-7.64456 z"
     style="fill:#c23838;stroke-width:1.08717;filter:url(#filter888);fill-opacity:1" />
  <path
     inkscape:connector-curvature="0"
     id="path2988"
     d="m 367.6869,139.56495 c -10.34996,-6.00848 -19.40339,-11.49177 -20.11871,-12.18509 -1.06912,-1.03623 -0.71658,-2.21264 1.98085,-6.61001 3.04575,-4.96518 3.26675,-5.89898 3.07685,-13.0005 -0.39886,-14.915995 -6.21044,-32.360948 -15.13748,-45.439066 -4.58273,-6.713701 -4.03662,-7.090187 4.97382,-3.428912 9.21707,3.745221 17.52745,9.224048 25.55576,16.848238 15.22881,14.462244 23.61544,31.55149 26.06776,53.11766 l 1.09263,9.60876 -3.32726,6.05229 c -1.82999,3.32875 -3.7815,6.03178 -4.33668,6.00672 -0.55518,-0.0251 -9.47757,-4.9616 -19.82754,-10.97009 z"
     style="fill:#6ec238;stroke-width:1.08717;filter:url(#filter892)" />
  <path
     sodipodi:nodetypes="ssssssssscs"
     inkscape:connector-curvature="0"
     id="path3015"
     d="m 229.9874,378.04896 c -10.3665,-6.08299 -21.28596,-12.66559 -24.26547,-14.62801 -2.97951,-1.96242 -13.32831,-8.13151 -22.99736,-13.70912 -9.66904,-5.57759 -17.58009,-10.60963 -17.58009,-11.18229 0,-1.82216 125.16717,-217.86718 126.52464,-218.38809 0.71533,-0.2745 9.86666,4.42721 20.33628,10.44825 10.46963,6.02104 20.91101,12.21191 23.36231,13.27973 8.29032,3.61143 42.40362,24.38178 42.71715,25.90485 0.1712,0.83164 -12.88723,23.16165 -28.79577,50.83254 -93.92635,163.37287 -96.73705,168.17179 -98.59403,168.33684 -1.02271,0.0909 -10.34115,-4.81171 -20.70766,-10.8947 z"
     style="fill:#762020;fill-opacity:1;stroke-width:1.08717;filter:url(#filter896)" />
  <path
     sodipodi:nodetypes="sssssssscscs"
     inkscape:connector-curvature="0"
     id="path2986"
     d="m 366.91815,141.10243 c -10.34996,-6.00848 -19.40339,-11.49177 -20.11871,-12.18509 -1.06912,-1.03623 0.0522,-3.75012 2.7496,-8.14749 3.04575,-4.96518 3.26675,-5.89898 3.07685,-13.0005 -0.39886,-14.915995 -6.21044,-32.360948 -15.13748,-45.439066 -4.58273,-6.713701 -3.07569,-8.051116 5.93475,-4.389841 9.21706,3.745222 17.52744,9.224048 25.55576,16.848239 15.2288,14.462242 24.84145,31.280938 26.61134,52.913818 l 0.40973,10.68568 -2.44394,6.45998 c -1.34411,3.55286 -3.8028,7.77311 -4.35798,7.74805 -0.55518,-0.0251 -11.92995,-5.48529 -22.27992,-11.49378 z"
     style="fill:#762020;stroke-width:1.08717;filter:url(#filter900);fill-opacity:1" />
  <path
     inkscape:connector-curvature="0"
     id="path3007"
     d="m 120.83675,455.03435 c -0.0474,-3.32132 -0.53626,-14.47228 -1.08634,-24.77985 -0.55006,-10.30759 -0.65181,-19.13205 -0.22612,-19.60993 0.86719,-0.97347 45.40453,24.1882 46.00551,25.9911 0.29324,0.87977 -37.78844,21.91867 -43.47945,24.021 -0.62005,0.22908 -1.16617,-2.30097 -1.2136,-5.62232 z"
     style="fill:#18250a;stroke-width:1.08717;filter:url(#filter904)" />
  <path
     sodipodi:nodetypes="sssscsssscs"
     inkscape:connector-curvature="0"
     id="path2984"
     d="m 231.20605,376.41756 c -11.15826,-6.49472 -20.42633,-12.22436 -20.59572,-12.73252 -0.1694,-0.50818 5.99295,-11.78351 13.6941,-25.05632 7.70116,-13.27281 36.07178,-62.3505 63.04581,-109.06154 26.97405,-46.71103 49.3288,-84.92812 49.67725,-84.92688 0.34842,9.9e-4 9.7702,5.29494 20.93727,11.76379 13.78655,7.98625 20.26062,12.27127 20.16935,13.34959 -0.0739,0.87344 -13.04489,23.99262 -28.82436,51.37596 -15.77947,27.38334 -43.83028,76.05749 -62.33512,108.16477 -18.50486,32.10729 -36.29929,62.15 -36.80408,62.30258 -0.50481,0.1526 -7.80623,-8.6847 -18.9645,-15.17943 z"
     style="fill:#250a0a;stroke-width:1.08717;filter:url(#filter908);fill-opacity:1" />
  <path
     inkscape:connector-curvature="0"
     id="path3041"
     d="m 158.32767,421.2227 c -3.92649,-2.38181 -11.70844,-7.21904 -17.29325,-10.74939 l -10.15421,-6.41887 -0.93081,-26.85572 c -0.51193,-14.77066 -1.33097,-33.35689 -1.82008,-41.30276 -0.79823,-12.96764 -0.64232,-14.44701 1.5225,-14.44701 2.5563,0 13.07957,5.81777 65.79891,36.37691 37.51106,21.74354 45.33016,26.75256 44.30842,28.38455 -1.16489,1.86059 -71.93184,39.73264 -73.69852,39.44091 -0.32666,-0.0539 -3.80649,-2.04682 -7.73296,-4.42862 z"
     style="fill:#ececec;fill-opacity:1;fill-rule:nonzero;stroke:#ececec;stroke-width:23.3741;stroke-linecap:round;stroke-linejoin:miter;stroke-miterlimit:4;stroke-dasharray:none;stroke-opacity:1;filter:url(#filter912)" />
  <path
     sodipodi:type="star"
     style="fill:#38c246;fill-opacity:1;stroke:#ffffff;stroke-width:0.9"
     id="path6429"
     sodipodi:sides="5"
     sodipodi:cx="261.02188"
     sodipodi:cy="222.13792"
     sodipodi:r1="23.078226"
     sodipodi:r2="11.539113"
     sodipodi:arg1="-1.0471976"
     sodipodi:arg2="-0.41887902"
     inkscape:flatsided="false"
     inkscape:rounded="0"
     inkscape:randomized="0"
     d="m 272.56099,202.15159 -0.9976,15.29295 12.0324,9.49162 -14.85274,3.777 -5.30884,14.37657 -8.18189,-12.95864 -15.31345,-0.6064 9.79606,-11.78588 -4.1554,-14.75135 14.23619,5.67456 z"
     inkscape:transform-center-x="-0.74545144"
     inkscape:transform-center-y="1.4827356" />
</svg>
